# xmcd CD database file
#
# Track frame offsets:
#	150
#	19462
#	43800
#	64025
#	84042
#	103875
#	117890
#	144390
#	183712
#
# Disc length: 2665 seconds
#
# Revision: 0
# Processed by: cddbd v1.5PL3 Copyright (c) Steve Scherf et al.
# Submitted via: CDex 1.51
#
DISCID=7a0a6709
DTITLE=Jan Gunnar Hoff - Syklus
DYEAR=1993
DGENRE=Jazz
TTITLE0=Lys
TTITLE1=Brytning
TTITLE2=Syklus
TTITLE3=Happy days
TTITLE4=New York City
TTITLE5=Across the land
TTITLE6=Refugee
TTITLE7=Kreftene
TTITLE8=The years
EXTD=YEAR: 1993
EXTT0=
EXTT1=
EXTT2=
EXTT3=
EXTT4=
EXTT5=
EXTT6=
EXTT7=
EXTT8=
PLAYORDER=
